<?xml version="1.0" standalone="no"?>
<!DOCTYPE svg PUBLIC "-//W3C//DTD SVG 20010904//EN"
 "http://www.w3.org/TR/2001/REC-SVG-20010904/DTD/svg10.dtd">
<svg version="1.0" xmlns="http://www.w3.org/2000/svg"
 width="622.000000pt" height="622.000000pt" viewBox="0 0 622.000000 622.000000"
 preserveAspectRatio="xMidYMid meet">
<metadata>
Created by potrace 1.14, written by Peter Selinger 2001-2017
</metadata>
<g transform="translate(0.000000,622.000000) scale(0.100000,-0.100000)"
fill="#000000" stroke="none">
<path d="M830 3616 l0 -2484 575 0 575 0 0 964 0 964 118 0 117 0 43 -50 c44
-51 84 -70 151 -70 45 0 121 43 150 86 17 24 31 34 45 32 l21 -3 0 -1445 0
-1445 501 -3 502 -2 0 1392 c1 766 1 1419 1 1451 l1 57 303 0 302 0 0 -962 0
-963 575 0 575 0 1 2483 2 2482 -577 -2 -576 -3 0 -968 0 -967 -176 0 -176 0
-5 84 c-3 67 -9 91 -28 119 -49 71 -131 101 -215 78 -39 -10 -105 -62 -105
-82 0 -19 -20 -8 -26 15 -8 34 -72 92 -118 106 -77 25 -173 -8 -211 -73 l-17
-29 -29 43 c-76 116 -251 116 -317 0 l-20 -34 -18 29 c-27 42 -35 49 -82 73
-90 46 -194 13 -246 -80 -23 -39 -26 -55 -26 -146 l0 -103 -220 0 -220 0 0
970 0 970 -575 0 -575 0 0 -2484z"/>
</g>
</svg>
